<svg width="50" height="50" viewBox="0 0 50 50" fill="none" xmlns="http://www.w3.org/2000/svg">
  <path d="M1 9C1 4.58172 4.58172 1 9 1H49V49H9C4.58172 49 1 45.4183 1 41V9Z" fill="#FCFCFC" />
  <path
    d="M39 19C39 20.0609 38.5786 21.0783 37.8284 21.8284C37.0783 22.5786 36.0609 23 35 23C34.3473 23.001 33.7046 22.8395 33.13 22.53L27.35 28.83C27.7712 29.4756 27.997 30.2291 28 31C28 32.0609 27.5786 33.0783 26.8284 33.8284C26.0783 34.5786 25.0609 35 24 35C22.9391 35 21.9217 34.5786 21.1716 33.8284C20.4214 33.0783 20 32.0609 20 31C19.9987 30.455 20.1147 29.9162 20.34 29.42L17.44 27.17C16.7427 27.7124 15.8834 28.0047 15 28C14.2089 28 13.4355 27.7654 12.7777 27.3259C12.1199 26.8864 11.6072 26.2616 11.3045 25.5307C11.0017 24.7998 10.9225 23.9956 11.0769 23.2196C11.2312 22.4437 11.6122 21.731 12.1716 21.1716C12.731 20.6122 13.4437 20.2312 14.2196 20.0769C14.9956 19.9225 15.7998 20.0017 16.5307 20.3045C17.2616 20.6072 17.8864 21.1199 18.3259 21.7777C18.7654 22.4355 19 23.2089 19 24C18.9985 24.5436 18.8862 25.0812 18.67 25.58L21.56 27.83C22.1693 27.3612 22.9009 27.0779 23.667 27.014C24.4332 26.9502 25.2015 27.1085 25.88 27.47L31.65 21.17C31.2288 20.5244 31.003 19.7709 31 19C31 17.9391 31.4214 16.9217 32.1716 16.1716C32.9217 15.4214 33.9391 15 35 15C36.0609 15 37.0783 15.4214 37.8284 16.1716C38.5786 16.9217 39 17.9391 39 19Z"
    fill="#7F3DFF" />
  <path d="M1 9C1 4.58172 4.58172 1 9 1H49V49H9C4.58172 49 1 45.4183 1 41V9Z" stroke="#F1F1FA" />
</svg>