  <svg
    width="32"
    height="48"
    viewBox="0 0 32 48"
    fill="none"
    xmlns="http://www.w3.org/2000/svg"
  >
    <path
      d="M2.79901 46H3.89631V42.8288H7.52202V46H8.62287V38.7273H7.52202V41.8878H3.89631V38.7273H2.79901V46ZM12.4332 46.1101C13.9709 46.1101 14.9759 44.9844 14.9759 43.2976C14.9759 41.6001 13.9709 40.4744 12.4332 40.4744C10.8956 40.4744 9.89062 41.6001 9.89062 43.2976C9.89062 44.9844 10.8956 46.1101 12.4332 46.1101ZM12.4368 45.2188C11.4318 45.2188 10.9631 44.3416 10.9631 43.294C10.9631 42.25 11.4318 41.3622 12.4368 41.3622C13.4347 41.3622 13.9034 42.25 13.9034 43.294C13.9034 44.3416 13.4347 45.2188 12.4368 45.2188ZM16.161 46H17.2228V42.6371C17.2228 41.902 17.7377 41.3906 18.3414 41.3906C18.9309 41.3906 19.3393 41.7812 19.3393 42.3743V46H20.3975V42.5234C20.3975 41.8665 20.7988 41.3906 21.4913 41.3906C22.0524 41.3906 22.514 41.7031 22.514 42.4418V46H23.5758V42.3423C23.5758 41.0959 22.8798 40.4744 21.8926 40.4744C21.1078 40.4744 20.5183 40.8509 20.2555 41.4332H20.1987C19.9608 40.8366 19.46 40.4744 18.7321 40.4744C18.0112 40.4744 17.475 40.8331 17.2477 41.4332H17.1802V40.5455H16.161V46ZM27.3498 46.1101C28.5394 46.1101 29.381 45.5241 29.6225 44.6364L28.6175 44.4553C28.4258 44.9702 27.9641 45.233 27.3604 45.233C26.4513 45.233 25.8406 44.6435 25.8121 43.5923H29.69V43.2159C29.69 41.245 28.511 40.4744 27.2752 40.4744C25.7553 40.4744 24.7539 41.6321 24.7539 43.3082C24.7539 45.0021 25.7411 46.1101 27.3498 46.1101ZM25.8157 42.7969C25.8583 42.0227 26.4194 41.3516 27.2823 41.3516C28.1062 41.3516 28.646 41.9624 28.6495 42.7969H25.8157Z"
      fill="#C6C6C6"
    />
    <path
      d="M27.67 13.56L25.67 11.74L18 4.77998C17.45 4.28803 16.738 4.01605 16 4.01605C15.2621 4.01605 14.55 4.28803 14 4.77998L6.35002 11.78L4.35002 13.6C4.21534 13.7366 4.12282 13.9091 4.08349 14.0969C4.04416 14.2847 4.05968 14.4799 4.1282 14.6591C4.19673 14.8383 4.31535 14.994 4.46994 15.1076C4.62452 15.2213 4.80853 15.288 5.00002 15.3C5.25331 15.2885 5.49279 15.1813 5.67002 15L6.00002 14.7V25C6.00002 25.7956 6.31609 26.5587 6.8787 27.1213C7.44131 27.6839 8.20437 28 9.00002 28H23C23.7957 28 24.5587 27.6839 25.1213 27.1213C25.6839 26.5587 26 25.7956 26 25V14.74L26.33 15.04C26.5134 15.2067 26.7522 15.2993 27 15.3C27.2016 15.2995 27.3984 15.238 27.5645 15.1237C27.7305 15.0093 27.8582 14.8475 27.9306 14.6593C28.0031 14.4712 28.017 14.2655 27.9704 14.0693C27.9239 13.8731 27.8192 13.6956 27.67 13.56Z"
      fill="#C6C6C6"
    />
  </svg>