  <svg
    width="32"
    height="48"
    viewBox="0 0 32 48"
    fill="none"
    xmlns="http://www.w3.org/2000/svg"
  >
    <path
      d="M16 16.07C19.3137 16.07 22 13.3837 22 10.07C22 6.7563 19.3137 4.07001 16 4.07001C12.6863 4.07001 10 6.7563 10 10.07C10 13.3837 12.6863 16.07 16 16.07Z"
      fill="#C6C6C6"
    />
    <path
      d="M19 18H13C11.1435 18 9.36301 18.7375 8.05025 20.0503C6.7375 21.363 6 23.1435 6 25C6 25.7956 6.31607 26.5587 6.87868 27.1213C7.44129 27.6839 8.20435 28 9 28H23C23.7956 28 24.5587 27.6839 25.1213 27.1213C25.6839 26.5587 26 25.7956 26 25C26 23.1435 25.2625 21.363 23.9497 20.0503C22.637 18.7375 20.8565 18 19 18Z"
      fill="#C6C6C6"
    />
    <path
      d="M0.799006 46H1.89631V43.4432H3.38778C5.07457 43.4432 5.90909 42.424 5.90909 41.0817C5.90909 39.7429 5.08168 38.7273 3.39134 38.7273H0.799006V46ZM1.89631 42.5128V39.6683H3.27415C4.3608 39.6683 4.80469 40.2578 4.80469 41.0817C4.80469 41.9055 4.3608 42.5128 3.28835 42.5128H1.89631ZM7.11026 46H8.17205V42.669C8.17205 41.9553 8.72248 41.4403 9.47532 41.4403C9.69549 41.4403 9.94407 41.4794 10.0293 41.5043V40.4886C9.92276 40.4744 9.71325 40.4638 9.5783 40.4638C8.9391 40.4638 8.39222 40.826 8.19336 41.4119H8.13654V40.5455H7.11026V46ZM13.0504 46.1101C14.5881 46.1101 15.593 44.9844 15.593 43.2976C15.593 41.6001 14.5881 40.4744 13.0504 40.4744C11.5128 40.4744 10.5078 41.6001 10.5078 43.2976C10.5078 44.9844 11.5128 46.1101 13.0504 46.1101ZM13.054 45.2188C12.049 45.2188 11.5803 44.3416 11.5803 43.294C11.5803 42.25 12.049 41.3622 13.054 41.3622C14.0518 41.3622 14.5206 42.25 14.5206 43.294C14.5206 44.3416 14.0518 45.2188 13.054 45.2188ZM19.3741 40.5455H18.1987V40.0554C18.1987 39.5724 18.3975 39.3097 18.916 39.3097C19.1362 39.3097 19.2924 39.3594 19.3919 39.3913L19.6404 38.532C19.4913 38.4751 19.1824 38.3864 18.7527 38.3864C17.8897 38.3864 17.1333 38.8906 17.1333 39.9134V40.5455H16.2917V41.3977H17.1333V46H18.1987V41.3977H19.3741V40.5455ZM20.4696 46H21.5314V40.5455H20.4696V46ZM21.0059 39.7038C21.3716 39.7038 21.677 39.4197 21.677 39.0717C21.677 38.7237 21.3716 38.4361 21.0059 38.4361C20.6365 38.4361 20.3347 38.7237 20.3347 39.0717C20.3347 39.4197 20.6365 39.7038 21.0059 39.7038ZM24.0217 38.7273H22.9599V46H24.0217V38.7273ZM27.801 46.1101C28.9906 46.1101 29.8322 45.5241 30.0737 44.6364L29.0687 44.4553C28.877 44.9702 28.4153 45.233 27.8116 45.233C26.9025 45.233 26.2917 44.6435 26.2633 43.5923H30.1412V43.2159C30.1412 41.245 28.9622 40.4744 27.7264 40.4744C26.2065 40.4744 25.2051 41.6321 25.2051 43.3082C25.2051 45.0021 26.1923 46.1101 27.801 46.1101ZM26.2669 42.7969C26.3095 42.0227 26.8706 41.3516 27.7335 41.3516C28.5574 41.3516 29.0971 41.9624 29.1007 42.7969H26.2669Z"
      fill="#C6C6C6"
    />
  </svg>