  <svg
    width="35"
    height="49"
    viewBox="0 0 35 49"
    fill="none"
    xmlns="http://www.w3.org/2000/svg"
  >
    <path
      d="M29 15H18V4C20.8412 4.22837 23.5083 5.46063 25.5239 7.47614C27.5394 9.49166 28.7716 12.1588 29 15Z"
      fill="#C6C6C6"
    />
    <path
      d="M29 17C28.801 19.2756 27.9566 21.4471 26.566 23.2594C25.1754 25.0716 23.2965 26.4493 21.15 27.2306C19.0035 28.0119 16.6786 28.1643 14.4484 27.6699C12.2183 27.1755 10.1756 26.0549 8.56038 24.4396C6.94515 22.8244 5.82449 20.7817 5.33009 18.5516C4.83569 16.3214 4.98809 13.9965 5.76938 11.85C6.55067 9.7035 7.92839 7.82457 9.74065 6.43401C11.5529 5.04346 13.7244 4.19905 16 4V16C16 16.2652 16.1054 16.5196 16.2929 16.7071C16.4804 16.8946 16.7348 17 17 17H29Z"
      fill="#C6C6C6"
    />
    <path
      d="M0.799006 46H3.58665C5.27699 46 6.04048 45.1584 6.04048 44.0433C6.04048 42.9176 5.25213 42.282 4.53125 42.2429V42.1719C5.19886 42.0014 5.75639 41.5469 5.75639 40.6378C5.75639 39.5618 5.01065 38.7273 3.46236 38.7273H0.799006V46ZM1.89631 45.0589V42.7294H3.51918C4.39986 42.7294 4.95028 43.2976 4.95028 43.9901C4.95028 44.6009 4.5348 45.0589 3.48011 45.0589H1.89631ZM1.89631 41.8736V39.6612H3.39489C4.26491 39.6612 4.6804 40.1193 4.6804 40.723C4.6804 41.4261 4.10511 41.8736 3.36648 41.8736H1.89631ZM10.712 43.7379C10.7156 44.6648 10.0266 45.1051 9.43004 45.1051C8.77308 45.1051 8.31854 44.6293 8.31854 43.8871V40.5455H7.25675V44.0149C7.25675 45.3679 7.99893 46.071 9.04652 46.071C9.86683 46.071 10.4244 45.6378 10.6765 45.0554H10.7333V46H11.7773V40.5455H10.712V43.7379ZM15.2459 46.1065C16.2402 46.1065 16.6309 45.4993 16.8226 45.1513H16.9114V46H17.9483V38.7273H16.8865V41.4297H16.8226C16.6309 41.0923 16.2686 40.4744 15.253 40.4744C13.9355 40.4744 12.9661 41.5149 12.9661 43.2834C12.9661 45.0483 13.9213 46.1065 15.2459 46.1065ZM15.4803 45.201C14.5321 45.201 14.0385 44.3665 14.0385 43.2727C14.0385 42.1896 14.5215 41.3764 15.4803 41.3764C16.4071 41.3764 16.9043 42.1328 16.9043 43.2727C16.9043 44.4197 16.3965 45.201 15.4803 45.201ZM21.7507 48.1591C23.1392 48.1591 24.2116 47.5234 24.2116 46.1207V40.5455H23.1712V41.4297H23.093C22.9048 41.0923 22.5284 40.4744 21.5128 40.4744C20.1953 40.4744 19.2259 41.5149 19.2259 43.2514C19.2259 44.9915 20.2166 45.9183 21.5057 45.9183C22.5071 45.9183 22.8942 45.3537 23.0859 45.0057H23.1534V46.0781C23.1534 46.9339 22.5675 47.3033 21.7614 47.3033C20.8771 47.3033 20.5327 46.8594 20.3445 46.5469L19.4318 46.9233C19.7195 47.5909 20.4474 48.1591 21.7507 48.1591ZM21.7401 45.0376C20.7919 45.0376 20.2983 44.3097 20.2983 43.2372C20.2983 42.1896 20.7812 41.3764 21.7401 41.3764C22.6669 41.3764 23.1641 42.1328 23.1641 43.2372C23.1641 44.3629 22.6562 45.0376 21.7401 45.0376ZM27.9865 46.1101C29.1761 46.1101 30.0178 45.5241 30.2592 44.6364L29.2543 44.4553C29.0625 44.9702 28.6009 45.233 27.9972 45.233C27.0881 45.233 26.4773 44.6435 26.4489 43.5923H30.3267V43.2159C30.3267 41.245 29.1477 40.4744 27.9119 40.4744C26.392 40.4744 25.3906 41.6321 25.3906 43.3082C25.3906 45.0021 26.3778 46.1101 27.9865 46.1101ZM26.4524 42.7969C26.495 42.0227 27.0561 41.3516 27.919 41.3516C28.7429 41.3516 29.2827 41.9624 29.2862 42.7969H26.4524ZM34.051 40.5455H32.9324V39.2386H31.8706V40.5455H31.0716V41.3977H31.8706V44.6186C31.867 45.6094 32.6234 46.0888 33.4615 46.071C33.7988 46.0675 34.0261 46.0036 34.1504 45.9574L33.9586 45.0803C33.8876 45.0945 33.7562 45.1264 33.5858 45.1264C33.2413 45.1264 32.9324 45.0128 32.9324 44.3984V41.3977H34.051V40.5455Z"
      fill="#C6C6C6"
    />
  </svg>