<svg width="40" height="40" viewBox="0 0 40 40" fill="none" xmlns="http://www.w3.org/2000/svg">
  <path
    d="M31 12.5H19C18.8674 12.5 18.7402 12.4473 18.6464 12.3536C18.5527 12.2598 18.5 12.1326 18.5 12C18.5 11.8674 18.5527 11.7402 18.6464 11.6464C18.7402 11.5527 18.8674 11.5 19 11.5H31C31.1326 11.5 31.2598 11.5527 31.3536 11.6464C31.4473 11.7402 31.5 11.8674 31.5 12C31.5 12.1326 31.4473 12.2598 31.3536 12.3536C31.2598 12.4473 31.1326 12.5 31 12.5Z"
    fill="black" stroke="#212325" />
  <path
    d="M25 21H19C18.7348 21 18.4804 20.8946 18.2929 20.7071C18.1054 20.5196 18 20.2652 18 20C18 19.7348 18.1054 19.4804 18.2929 19.2929C18.4804 19.1054 18.7348 19 19 19H25C25.2652 19 25.5196 19.1054 25.7071 19.2929C25.8946 19.4804 26 19.7348 26 20C26 20.2652 25.8946 20.5196 25.7071 20.7071C25.5196 20.8946 25.2652 21 25 21Z"
    fill="black" />
  <path
    d="M21 29H19C18.7348 29 18.4804 28.8946 18.2929 28.7071C18.1054 28.5196 18 28.2652 18 28C18 27.7348 18.1054 27.4804 18.2929 27.2929C18.4804 27.1054 18.7348 27 19 27H21C21.2652 27 21.5196 27.1054 21.7071 27.2929C21.8946 27.4804 22 27.7348 22 28C22 28.2652 21.8946 28.5196 21.7071 28.7071C21.5196 28.8946 21.2652 29 21 29Z"
    fill="black" />
  <path
    d="M14.9999 11C14.7347 11 14.4804 11.1054 14.2928 11.2929C14.1053 11.4804 13.9999 11.7348 13.9999 12V26.45L9.70994 22.15C9.52164 21.9617 9.26624 21.8559 8.99994 21.8559C8.73364 21.8559 8.47824 21.9617 8.28994 22.15C8.10164 22.3383 7.99585 22.5937 7.99585 22.86C7.99585 23.1263 8.10164 23.3817 8.28994 23.57L12.8799 28.16C13.4485 28.7081 14.2103 29.01 14.9999 29C15.2652 29 15.5195 28.8946 15.707 28.7071C15.8946 28.5196 15.9999 28.2652 15.9999 28V12C15.9999 11.7348 15.8946 11.4804 15.707 11.2929C15.5195 11.1054 15.2652 11 14.9999 11Z"
    fill="black" />
  <rect x="0.5" y="0.5" width="39" height="39" rx="7.5" stroke="#F1F1FA" />
</svg>